Coordinates
version=1
nRows=4
nColumns=63
inDegrees=yes

Units are S.I. units (second, meters, Newtons, ...)
If the header above contains a line with 'inDegrees', this indicates whether rotational values are in degrees (yes) or radians (no).

endheader
time	pelvis_tilt	pelvis_list	pelvis_rotation	pelvis_tx	pelvis_ty	pelvis_tz	hip_flexion_r	hip_adduction_r	hip_rotation_r	knee_angle_r	knee_angle_r_beta	ankle_angle_r	subtalar_angle_r	mtp_angle_r	hip_flexion_l	hip_adduction_l	hip_rotation_l	knee_angle_l	knee_angle_l_beta	ankle_angle_l	subtalar_angle_l	mtp_angle_l	L5_S1_Flex_Ext	L5_S1_Lat_Bending	L5_S1_axial_rotation	L4_L5_Flex_Ext	L4_L5_Lat_Bending	L4_L5_axial_rotation	L3_L4_Flex_Ext	L3_L4_Lat_Bending	L3_L4_axial_rotation	L2_L3_Flex_Ext	L2_L3_Lat_Bending	L2_L3_axial_rotation	L1_L2_Flex_Ext	L1_L2_Lat_Bending	L1_L2_axial_rotation	L1_T12_Flex_Ext	L1_T12_Lat_Bending	L1_T12_axial_rotation	Abs_r3	Abs_r2	Abs_r1	Abs_t1	Abs_t2	neck_flexion	neck_bending	neck_rotation	arm_flex_r	arm_add_r	arm_rot_r	elbow_flex_r	pro_sup_r	wrist_flex_r	wrist_dev_r	arm_flex_l	arm_add_l	arm_rot_l	elbow_flex_l	pro_sup_l	wrist_flex_l	wrist_dev_l
     10.10000000	      4.35288162	     -0.68533562	    177.66506982	      2.35097759	      0.89357039	      0.73529711	     12.02139396	     -2.53754281	     -6.87576739	     21.81321515	      0.38071242	     21.65908192	     -6.38367306	      0.00000000	      5.66867824	     -1.12484510	    -12.95751878	     13.12308404	      0.22904102	     21.48412649	      6.10798210	      0.00000000	      0.00156310	     -0.16024469	     -0.16012726	      0.00290284	     -0.21312544	     -0.17013521	      0.00256802	     -0.38961895	     -0.17013521	      0.00178647	     -0.38961895	     -0.14011135	      0.00145150	     -0.32677098	     -0.13010340	      0.00089316	     -0.24821903	     -0.12009544	      0.01116510	     -1.81272002	     -0.89057976	      0.00000000	      0.00000000	      0.00000000	      0.00000000	      0.00000000	    -15.26723815	     -2.29236238	     -3.40704970	     25.32989537	     55.81224511	      0.00000000	      5.00000014	     -8.65222156	    -12.06402363	     56.08746552	     19.30334352	     53.40688818	      0.00000000	      5.00000014
     10.13333333	      4.38295722	     -1.12655956	    176.37396472	      2.35157437	      0.89403773	      0.73485976	     12.66539175	     -2.98386962	     -6.45560990	     22.51104719	      0.39289189	     21.84371687	     -5.30638093	      0.00000000	      5.72117035	     -0.62234950	    -13.73005809	     13.21592053	      0.23066133	     20.87897445	      4.37102268	      0.00000000	      0.00167856	     -0.20196087	      0.05569081	      0.00311725	     -0.26860796	      0.05917148	      0.00275770	     -0.49104767	      0.05917148	      0.00191842	     -0.49104767	      0.04872946	      0.00155871	     -0.41183861	      0.04524878	      0.00095913	     -0.31283739	      0.04176810	      0.01198977	     -2.28462180	      0.30973556	      0.00000000	      0.00000000	      0.00000000	      0.00000000	      0.00000000	    -14.96807851	     -2.35220059	     -3.53051265	     24.90695895	     55.73063364	      0.00000000	      5.00000014	     -8.58877342	    -11.77270652	     55.83886745	     18.86838598	     53.27787686	      0.00000000	      5.00000014
     10.16666667	      4.41774294	     -1.24130759	    176.06352593	      2.35180479	      0.89445864	      0.73554385	     12.92138146	     -3.15778503	     -6.51522487	     22.74453641	      0.39696705	     21.96081828	     -4.91643999	      0.00000000	      5.80101602	     -0.45362598	    -13.74273084	     13.28351160	      0.23184101	     20.69161344	      3.90209912	      0.00000000	      0.00117796	     -0.20293096	      0.08220315	      0.00218759	     -0.26989817	      0.08734085	      0.00193527	     -0.49340633	      0.08734085	      0.00134629	     -0.49340633	      0.07192776	      0.00109385	     -0.41381681	      0.06679006	      0.00067309	     -0.31434005	      0.06165236	      0.00841406	     -2.29559558	      0.45718927	      0.00000000	      0.00000000	      0.00000000	      0.00000000	      0.00000000	    -14.85452636	     -2.55014920	     -3.71326325	     24.86087172	     55.56682555	      0.00000000	      5.00000014	     -8.59265769	    -11.54230052	     55.73845420	     18.88616643	     53.14228249	      0.00000000	      5.00000014
     10.20000000	      4.44659382	     -1.38445616	    176.04123351	      2.35190203	      0.89482523	      0.73613269	     13.10381259	     -3.33805714	     -6.54790953	     22.94376320	      0.40044421	     22.00067701	     -4.90065237	      0.00000000	      6.01749300	     -0.32258661	    -14.07611161	     13.59781426	      0.23732663	     20.55768678	      3.75178310	      0.00000000	      0.00061858	     -0.21170363	      0.07111600	      0.00114876	     -0.28156583	      0.07556075	      0.00101626	     -0.51473621	      0.07556075	      0.00070697	     -0.51473621	      0.06222650	      0.00057441	     -0.43170604	      0.05778175	      0.00035345	     -0.32792892	      0.05333700	      0.00441843	     -2.39483380	      0.39552587	      0.00000000	      0.00000000	      0.00000000	      0.00000000	      0.00000000	    -14.73517681	     -2.51081062	     -4.27300443	     24.62752458	     54.69524446	      0.00000000	      5.00000014	     -8.64775381	    -11.32851315	     55.23363921	     18.67537972	     52.48284221	      0.00000000	      5.00000014
